<?xml version="1.0" encoding="utf-8"?>
<!-- Generator: Adobe Illustrator 22.1.0, SVG Export Plug-In . SVG Version: 6.00 Build 0)  -->
<svg version="1.1" id="Layer_1" xmlns="http://www.w3.org/2000/svg" xmlns:xlink="http://www.w3.org/1999/xlink" x="0px" y="0px"
	 width="792px" height="189px" viewBox="0 0 792 189" style="enable-background:new 0 0 792 189;" xml:space="preserve">
<style type="text/css">
	.st0{fill:#7F1416;}
</style>
<g>
	<path class="st0" d="M769.8,29.2L769.8,29.2l0-0.2c-0.1-1.8-0.2-4.2-0.2-6.7v-0.5l-0.5,0.1c-0.6,0.1-3.7,0.1-6.8,0.1h-9.3
		c-1.9,0-3.6,0-5.9-0.1l-0.1,0l-0.1,0c-0.4,0.2-0.5,0.8-0.5,1c0,0.4,0.1,0.8,0.4,1l1,0.2c2.6,0.3,2.7,0.6,2.7,6v18.3
		c0,5.4-0.1,5.6-2.7,6l-1.4,0.2l-0.1,0.1c-0.3,0.3-0.3,0.8-0.3,1.1c0.1,0.4,0.2,0.7,0.5,0.8l0.1,0l0.1,0c2.4-0.1,4.1-0.2,6.3-0.2
		c2,0,3.8,0.1,6.7,0.2l0.1,0l0.1,0c0.3-0.2,0.5-0.6,0.5-1c0-0.4-0.1-0.8-0.4-1l-1.9-0.2c-2.6-0.2-2.7-0.6-2.7-6v-7.1c0-1,0-1,1.3-1
		h3.5c1.8,0,3.1,0,3.8,0.2c0.7,0.2,1.1,0.7,1.4,1.7l0.5,2.1l0.1,0.1c0.5,0.4,1.6,0.4,1.9-0.1l0.1-0.1v-0.1c0-0.5,0-1.2-0.1-2
		c-0.1-0.9-0.1-2-0.1-3c0-1,0.1-2.1,0.1-3.1c0-0.8,0.1-1.5,0.1-2.1V34l-0.1-0.1c-0.2-0.4-0.8-0.4-1-0.4c-0.4,0-0.8,0.1-1,0.4
		l-0.5,2.2c-0.3,1.2-0.6,1.4-1,1.5c-0.5,0.2-2.1,0.3-4.2,0.3h-3.5c-1.3,0-1.3,0-1.3-1V26.1c0-1.6,0-1.6,1.1-1.6h3.1
		c2.1,0,3.8,0,4.8,0.3c2.2,0.6,2.8,2,3.3,4.5l0,0.1l0.1,0.1c0.2,0.2,0.5,0.3,0.8,0.3C769.1,29.8,769.6,29.6,769.8,29.2L769.8,29.2z
		 M735.7,39.1c0-8.6-5.6-17.8-18-17.8c-10.5,0-18.5,7.9-18.5,18.3c0,8.7,6.3,17.6,18.5,17.6C728,57.2,735.7,49.4,735.7,39.1
		L735.7,39.1z M729.9,40.7c0,10.5-6.2,14.2-11.5,14.2c-10.5,0-13.3-10.6-13.3-16.9c0-10.6,6.3-14.3,11.7-14.3
		C726.5,23.7,729.9,32.8,729.9,40.7L729.9,40.7z M688.3,127.2c0,21.9,16.3,41.3,43.4,41.3c23.5,0,42.3-17.9,42.3-42.5
		c0-21.4-14.1-41.8-42.3-41.8C706.6,84.2,688.3,102.9,688.3,127.2L688.3,127.2z M700.5,123.3c0-26.7,16.4-35.3,29.1-35.3
		c23.3,0,32.2,21.7,32.2,41.8c0,24-13.9,35-28.5,35C709.3,164.8,700.5,141.4,700.5,123.3L700.5,123.3z M673.6,23.9
		c0.3-0.2,0.4-0.6,0.4-1c0-0.4-0.2-0.7-0.5-0.9l-0.1-0.1l-0.1,0c-3.6,0.2-5.7,0.2-9.6,0l-0.1,0l-0.1,0c-0.3,0.1-0.5,0.4-0.5,0.8
		c-0.1,0.4,0.1,0.8,0.3,1.1l0.1,0.1l1,0.1c1,0.1,1.6,0.4,1.8,0.5c-0.2,0.7-1.9,4-3,6l-0.2,0.4c-1.2,2.4-2.6,4.9-4.4,8
		c-1.3-2.4-2.6-5.1-3.9-7.7c-0.5-1-1-2-1.5-3c-0.4-0.7-1.5-3.3-1.5-3.7c0-0.1,0.2-0.3,1.8-0.5l0.8-0.1l0.1-0.1
		c0.3-0.3,0.4-0.8,0.3-1.2c-0.1-0.3-0.3-0.6-0.6-0.7l-0.1,0l-0.1,0c-1.2,0.1-3.1,0.1-5.4,0.1c-2.4,0-4.2,0-5.9-0.1l-0.1,0l-0.1,0.1
		c-0.2,0.1-0.4,0.4-0.5,0.7c-0.1,0.4,0,0.8,0.3,1.1l0.1,0.1l1.6,0.3c1.3,0.2,2,0.3,3.7,3.7l6,11.7c1.4,2.8,1.6,3.3,1.6,6.1v2.6
		c0,5.5-0.1,5.8-2.7,6.1l-1.7,0.2l-0.1,0.1c-0.3,0.3-0.3,0.8-0.3,1.1c0.1,0.4,0.2,0.7,0.5,0.8l0.1,0l0.1,0c2.7-0.1,4.5-0.2,6.6-0.2
		c2.1,0,3.9,0.1,6.9,0.2l0.1,0l0.1,0c0.2-0.1,0.4-0.4,0.5-0.8c0.1-0.3,0-0.8-0.3-1.1l-0.1-0.1l-2.1-0.2c-2.3-0.2-2.7-0.6-2.7-6.1
		v-2.6c0-3.8,0.1-4.2,2.3-8l3.2-5.5c0.3-0.5,0.6-1,0.8-1.5c2-3.5,3.4-6,5.6-6.4L673.6,23.9L673.6,23.9L673.6,23.9z M655.8,86
		c-2.1-0.5-8.5-1.8-15.5-1.8c-18.4,0-30.5,5.7-38.6,14.3c-7.6,8-11,18.5-11,28.9c0,10.7,3.9,20.3,11.2,27.7
		c9.4,9.5,22.7,13.5,37.2,13.5c6.6,0,15.4-1.5,21.8-3.2c2.3-0.6,4.5-1.1,6-1.1c0.5-0.4,0.5-1.1,0.1-1.5c-2.2-0.9-2.9-3.8-2.9-8.6
		v-6.8c0-6.2,0.1-9.6,5.2-10.2l2-0.2c0.9-0.7,0.7-2.6-0.1-3c-4,0.2-8.2,0.4-12.9,0.4c-7.2,0-13.9-0.1-17.4-0.4c-0.9,0.4-1,2.6,0,3
		l5.4,0.6c7.6,0.9,7.9,1.6,7.9,11.8v4.9c0,3.9-0.6,6.1-1.2,6.9c-1.3,2.1-5.8,3.7-13.4,3.7c-24.5,0-36.6-18.4-36.6-41.8
		c0-18.3,10.4-35.1,34-35.1c12.4,0,21.6,4.1,25,17.3c0.7,0.7,2.9,0.6,3.3-0.4c-1.1-7.3-1.8-13.6-1.8-17.7
		C661.9,87.4,658.1,86.5,655.8,86L655.8,86z M635.1,21.3l0-0.1l-0.1-0.1c-0.2-0.4-0.7-0.4-0.9-0.4c-0.1,0-0.3,0-0.5,0.1l-0.1,0
		l-0.1,0.1c-0.7,1.1-0.9,1.2-3.6,1.2h-21c-2.3,0-3.3-0.1-3.5-1.3l0-0.1l-0.1-0.1c-0.1-0.1-0.4-0.2-0.7-0.2c-0.1,0-0.5,0-0.8,0.2
		l-0.1,0.1l0,0.2c-0.4,2-1.1,5.2-1.9,7.5l-0.1,0.2l0.1,0.1c0.3,0.6,1.3,0.9,1.9,0.5l0.1-0.1l0-0.1c0.5-1.2,1-2.3,2.2-3.4
		c1.1-1,3.7-1.2,6-1.2h2.8c1.1,0,1.1,0,1.1,1.2v22.7c0,5.5-0.3,5.7-2.8,6l-1.8,0.2l-0.2,0.1c-0.3,0.2-0.5,0.6-0.5,1
		c0,0.3,0.2,0.8,0.5,0.9l0.1,0l0.1,0c3.1-0.1,5-0.2,7-0.2c2,0,3.6,0,6.6,0.2l0.1,0l0.1,0c0.4-0.2,0.5-0.8,0.5-1c0-0.4-0.1-0.8-0.4-1
		l-1.8-0.2c-2.5-0.2-2.7-0.6-2.7-6V25.6c0-0.5,0-1,0.1-1.1c0.1-0.1,0.6-0.1,1-0.1h3.6c2.7,0,4.6,0.4,5.7,1.2
		c0.5,0.4,0.9,1.6,1.1,3.4l0,0.1l0.1,0.1c0.2,0.2,0.5,0.4,0.9,0.4c0.5,0,0.9-0.2,1-0.5l0-0.1l0-0.1
		C634.2,27.5,634.5,23.4,635.1,21.3L635.1,21.3z M588.8,48.3V30.2c0-5.5,0.2-5.9,2.7-6.1l1.4-0.1l0.1-0.1c0.3-0.2,0.4-0.5,0.4-1
		c0-0.2-0.1-0.8-0.5-1l-0.1,0l-0.1,0c-2.4,0.1-4.2,0.1-6.3,0.1c-2.2,0-3.9-0.1-6.4-0.1l-0.1,0l-0.1,0c-0.4,0.2-0.5,0.8-0.5,1
		c0,0.4,0.1,0.8,0.4,1l0.1,0.1l1.4,0.1c2.6,0.2,2.7,0.6,2.7,6.1v18.1c0,5.5-0.1,5.7-2.8,6.1l-1.4,0.2l-0.1,0.1
		c-0.3,0.3-0.3,0.8-0.3,1.1c0.1,0.4,0.2,0.7,0.5,0.8l0.1,0l0.1,0c2.6-0.1,4.3-0.2,6.4-0.2c2,0,3.7,0.1,6.3,0.2l0.1,0l0.1,0
		c0.4-0.2,0.5-0.8,0.5-1c0-0.4-0.1-0.8-0.4-1l-1.4-0.2C588.9,54,588.8,53.8,588.8,48.3L588.8,48.3z M580.4,163.5
		c-5.2-0.6-6.8-2.4-10.4-12.9l-16.7-49c-1.8-5.4-3.8-11-5.4-16.3c-0.2-0.9-1.1-1.1-1.8-1.1c-1.3,1.6-3.4,3.8-6.3,4.6
		c0.4,1.9-0.4,4.3-2.1,8.6l-12.4,32.9c-5.1,13.6-8.5,21.6-10.7,27.2c-1.7,4.4-4.4,5.7-7.3,6l-4,0.4c-0.7,0.6-0.5,2.6,0.2,3
		c3.3-0.1,7.7-0.4,11.7-0.4c5.7,0.1,9.5,0.1,12.7,0.4c1.1-0.5,1.1-2.4,0.2-3l-4-0.4c-2.9-0.2-3.5-1-3.5-2.4c0-1.3,0.9-4.6,2.7-10.1
		l4.3-12.8c0.9-2.6,1.6-2.9,4.6-2.9h18.4c3.7,0,4.1,0.4,5,3l5.4,16.6c1,2.9,1.6,5.1,1.6,6.5c0,1.2-1.7,2-4.3,2.2l-3.5,0.4
		c-0.9,0.6-0.7,2.6,0.2,3c3.5-0.1,8.2-0.4,14-0.4c5.5,0,9.7,0.1,14.7,0.4c0.6-0.5,0.9-2.4,0-3L580.4,163.5L580.4,163.5z M549,130.4
		h-15c-3.4,0-3.5-0.1-2.6-2.9l7.7-21.2c1.3-3.7,2.6-6.6,2.9-7.2h0.2c0.7,1.5,1.8,4.8,2.8,7.7l6.6,19.9
		C552.7,129.9,552.5,130.4,549,130.4L549,130.4z M553.9,28.9c0-2,0.7-5.2,5.7-5.2c4.5,0,5.8,2.9,6.5,5.4l0.1,0.1
		c0.2,0.2,0.4,0.3,0.8,0.3c0.4,0,0.9-0.2,1.1-0.5l0.1-0.1v-0.1c0-2.1-0.4-5-0.9-6.3l-0.1-0.3h-0.3c-0.4,0-1-0.1-1.7-0.3
		c-1.2-0.3-3.1-0.7-4.8-0.7c-6.4,0-10.7,3.7-10.7,9.1c0,4.6,3.5,7.7,5.7,9.1l4.8,3.2c3.5,2.3,4,4.6,4,6.8c0,2.7-1.8,5.4-6,5.4
		c-5.1,0-7.4-4-8.4-7.3l0-0.1c-0.2-0.2-0.4-0.4-0.8-0.4c-0.3,0-0.8,0.1-1.1,0.5l-0.1,0.1l0,0.1c0.1,2.3,0.7,6.1,1.4,7.3l0.1,0.1
		l0.1,0.1c1,0.6,3.8,1.9,8.1,1.9c6.7,0,11.2-3.9,11.2-9.8c0-4.1-2.1-7.4-6.5-10.1l-4.1-2.5C556.5,33.9,553.9,31.8,553.9,28.9
		L553.9,28.9z M541.2,56.6c0.2-0.2,0.4-0.5,0.3-0.8c0-0.3-0.2-0.5-0.5-0.6l-0.1,0c-1.2-0.1-2.4-0.6-3.3-1.3
		c-3.5-2.9-6.3-7.2-10.1-13.4c-0.3-0.4-0.3-0.6-0.3-0.7c1.7-0.7,6.5-3.2,6.5-8.8c0-4.3-2.4-6.4-4.4-7.5c-2.5-1.4-5.8-1.6-8.7-1.6
		c-4.6,0-8.3,0.1-11.4,0.4l-0.1,0c-0.3,0.1-0.5,0.5-0.5,0.9c0,0.4,0.1,0.9,0.4,1.1l0.1,0.1l1.7,0.2c1.7,0.2,1.9,0.6,1.9,5.6v18.2
		c0,5.4-0.1,5.6-2.7,6l-1.4,0.2l-0.1,0.1c-0.3,0.3-0.3,0.8-0.2,1.2c0.1,0.3,0.2,0.6,0.5,0.7l0.1,0l0.1,0c2.3-0.1,4.1-0.2,6.3-0.2
		c2.1,0,3.9,0.1,6,0.2l0.1,0l0.1,0c0.4-0.2,0.5-0.7,0.5-0.9c0.1-0.4-0.1-0.8-0.3-1l-0.1-0.1l-1.2-0.2c-2.6-0.4-2.7-0.6-2.7-6V42
		c0-0.7,0-0.7,2-0.7c1.9,0,2.6,0.5,3.3,1.5c0.8,1.1,1.7,2.5,2.5,3.9c0.9,1.4,1.8,2.8,2.4,3.8c3.5,5,6.1,6.6,10.8,6.6
		c1,0,1.8-0.1,2.4-0.3L541.2,56.6L541.2,56.6z M525.9,37.7c-1.5,1.1-3.4,1.2-5,1.2c-2.3,0-3-0.1-3.2-0.1c-0.1-0.2-0.1-0.8-0.1-1.4
		V25.6c0-1.1,0-1.2,2.9-1.2c5.7,0,7.7,4,7.7,7.4C528.2,34.6,527.5,36.5,525.9,37.7L525.9,37.7z M499.6,49.2l0-0.1l-0.1-0.1
		c-0.2-0.5-0.8-0.7-1.2-0.7c-0.3,0-0.5,0.1-0.7,0.2l-0.1,0.1c-1.5,2.9-2.8,4.4-3.4,4.7c-1.1,0.5-2.6,0.7-6.3,0.7
		c-4.2,0-5.3-0.5-5.9-1c-0.7-0.8-0.9-2.4-0.9-5v-7.2c0-1,0-1,1.3-1h2.9c1.8,0,3.1,0,3.8,0.2c0.7,0.2,1.1,0.6,1.3,1.6l0.5,2l0.1,0.2
		c0.2,0.2,0.5,0.4,1,0.4c0.5,0,0.8-0.2,1-0.5l0.1-0.1v-0.1c0-0.5,0-1.2-0.1-1.9c-0.1-0.9-0.1-2-0.1-3c0-1.1,0.1-2.1,0.1-3.1
		c0-0.8,0.1-1.5,0.1-2v-0.1l-0.1-0.1c-0.2-0.3-0.5-0.5-1-0.5c-0.4,0-0.8,0.1-1,0.4l-0.5,2.3c-0.2,1.2-0.5,1.3-1,1.5
		c-0.5,0.2-2.1,0.3-4.2,0.3h-2.9c-1.3,0-1.3,0-1.3-1V26.1c0-1.6,0-1.6,1.1-1.6h3.7c2.2,0,3.8,0.1,4.8,0.3c2.3,0.6,2.8,2,3.5,4.3
		l0.1,0.3l0.1,0.1c0.2,0.2,0.5,0.3,0.8,0.3c0.4,0,0.8-0.1,1.1-0.5l0.1-0.1l-0.1-0.7c-0.3-3-0.5-5.5-0.8-6.2l-0.1-0.3l-0.3,0.1
		c-0.6,0.1-3.7,0.1-6.8,0.1h-9.5c-2,0-3.6,0-6-0.1l-0.1,0l-0.1,0c-0.4,0.2-0.5,0.8-0.5,1c0,0.4,0.1,0.8,0.4,1l1,0.2
		c2.6,0.3,2.8,0.6,2.8,6v18.3c0,5.5-0.3,5.7-2.8,6l-1.8,0.2l-0.1,0.1c-0.3,0.3-0.3,0.8-0.3,1.1c0.1,0.4,0.2,0.7,0.5,0.8l0.1,0l0.1,0
		c2.9-0.1,4.7-0.2,6.9-0.2h4.6c4.4,0,8.9,0,13.6,0.2l0.3,0l0.1-0.2C498,54.9,499.3,51,499.6,49.2L499.6,49.2z M464.8,23.9
		c0.3-0.3,0.3-0.8,0.3-1.1c0-0.4-0.2-0.7-0.5-0.8l-0.1-0.1l-0.1,0c-1.7,0.1-3.3,0.1-4.9,0.1c-2,0-3.9-0.1-5.3-0.1l-0.1,0L454,22
		c-0.3,0.2-0.5,0.5-0.5,0.9c0,0.4,0.1,0.8,0.3,1l0.1,0.1l1,0.1c1.8,0.2,1.9,0.6,1.9,0.6c0,0.3,0,0.8-0.4,1.8
		c-0.9,2.2-3.3,8-4.7,11.4c-0.4,0.9-0.9,2-1.4,3.2c-1,2.3-2.1,5.1-3.1,7.2c-2.4-5.5-4.6-11.1-6.9-16.7c-1.5-3.6-2.3-6.3-2.5-7
		c0.1-0.2,0.5-0.4,2-0.6l0.9-0.1l0.1-0.1c0.3-0.2,0.4-0.6,0.4-1c0-0.4-0.2-0.7-0.5-0.9l-0.1-0.1l-0.1,0c-2.3,0.1-4,0.1-6.1,0.1
		c-2.1,0-3.7,0-5.3-0.1l-0.1,0l-0.1,0.1c-0.3,0.2-0.5,0.5-0.5,0.9c0,0.4,0.1,0.8,0.4,1l0.1,0.1l1,0.1c2,0.2,2.6,1.1,3.8,3.9l8.9,22
		c1.1,2.6,1.8,4.9,2.3,6.7l0,0.2l0.2,0.1c0.3,0.1,0.6,0.2,0.9,0.2c0.3,0,0.6-0.1,0.8-0.2l0.1-0.1l0-0.1c0.9-2.7,3.3-8.7,5.3-13.2
		l2.7-6.2c2.4-5.3,4.3-9.4,5.7-11.6c0.6-1,1.3-1.5,2.3-1.6l1.7-0.1L464.8,23.9L464.8,23.9z M431.6,94.6
		c-9.3,7.2-15.4,18.8-15.4,32.3c0,15.7,7.6,26.8,17.3,33.5c8.9,6,19.4,8.2,30.3,8.2c7.8,0,16.6-1.8,19.2-2.8c1.3-0.5,2.8-1,4.3-1.2
		c1.8-2.3,5-10.4,5.8-16.7c-0.5-0.9-2.3-1.1-3.2-0.5c-2.8,7.2-9.7,17.4-25.5,17.4c-20,0-36.2-14.1-36.2-39.7c0-25.2,15.8-37,34.5-37
		c17.7,0,23.1,9.5,25,17.8c0.9,0.7,2.7,0.6,3.3-0.2c-1-7.4-1.6-15.1-1.7-17.9c-1.1,0.1-1.9-0.1-3.4-0.5c-5.7-1.6-15-2.9-21.6-2.9
		C451.9,84.2,440.5,87.6,431.6,94.6L431.6,94.6z M416.1,48.3V30.2c0-5.5,0.2-5.9,2.7-6.1l1.4-0.1l0.1-0.1c0.3-0.2,0.4-0.5,0.4-1
		c0-0.2-0.1-0.8-0.5-1l-0.1,0l-0.1,0c-2.4,0.1-4.2,0.1-6.3,0.1c-2.2,0-3.9-0.1-6.4-0.1l-0.1,0l-0.1,0c-0.4,0.2-0.5,0.8-0.5,1
		c0,0.4,0.1,0.8,0.4,1L407,24l1.4,0.1c2.6,0.2,2.7,0.6,2.7,6.1v18.1c0,5.5-0.1,5.7-2.8,6.1l-1.4,0.2l-0.1,0.1
		c-0.3,0.3-0.3,0.8-0.3,1.1c0.1,0.4,0.2,0.7,0.5,0.8l0.1,0l0.1,0c2.6-0.1,4.3-0.2,6.4-0.2c2,0,3.8,0.1,6.3,0.2l0.1,0l0.1,0
		c0.4-0.2,0.5-0.8,0.5-1c0-0.4-0.1-0.8-0.4-1l-1.4-0.2C416.2,54,416.1,53.8,416.1,48.3L416.1,48.3z M390.6,148.1v-43.4
		c0-12.9,0.2-15,7.4-15.6l3-0.2c0.7-0.5,0.5-2.7-0.2-3c-6.1,0.2-10.2,0.4-15.1,0.4c-5.1,0-9.3-0.1-15.4-0.4c-0.7,0.4-1,2.6-0.2,3
		l3,0.2c7.2,0.6,7.4,2.7,7.4,15.6v43.4c0,12.9-0.2,14.6-7.4,15.5l-3,0.4c-0.7,0.7-0.5,2.7,0.2,3c6.1-0.2,10.2-0.4,15.4-0.4
		c4.9,0,9,0.1,15.1,0.4c0.7-0.4,1-2.6,0.2-3l-3-0.4C390.8,162.7,390.6,161,390.6,148.1L390.6,148.1z M396.9,23.9
		c0.2-0.2,0.4-0.6,0.3-1c0-0.4-0.2-0.7-0.5-0.8l-0.1-0.1l-0.1,0c-1.7,0.1-3,0.1-5.2,0.1c-1.8,0-3.5,0-6-0.1l-0.1,0l-0.1,0
		c-0.3,0.1-0.5,0.4-0.6,0.8c-0.1,0.5,0.1,0.9,0.4,1.2L385,24l1,0.1c1.7,0.2,2.6,0.5,2.9,0.8c0.6,1,1,4.7,1,10.3v10.9
		c0,0.5,0,1.1,0,1.4c-1.8-1.8-3.6-3.9-5.9-6.4l-7.1-7.9c-5-5.6-7.9-9.3-8.5-11l-0.1-0.3l-0.3,0c-0.6,0.1-1.4,0.1-2.3,0.1
		c-0.9,0-3.6,0-5.7-0.1l-0.1,0l-0.1,0c-0.3,0.1-0.5,0.4-0.5,0.8c-0.1,0.4,0.1,0.9,0.3,1.1l0.1,0.1l1,0.1c1.4,0.2,2.4,0.6,2.9,1.1
		c0.9,1,1,2,1,3.4l0,15.1c0,2.5,0,8.2-0.6,9.8c-0.1,0.3-0.5,0.6-1.9,0.8l-1.5,0.2l-0.1,0.1c-0.2,0.2-0.3,0.6-0.3,1
		c0,0.4,0.2,0.7,0.5,0.9l0.1,0.1l0.1,0c1.8-0.1,3.1-0.2,5.3-0.2c1.7,0,3.4,0,5.9,0.2l0.1,0l0.1-0.1c0.2-0.2,0.4-0.4,0.4-0.8
		c0.1-0.4,0-0.8-0.3-1.1l-0.1-0.1l-1.8-0.2c-1.2-0.1-2.1-0.4-2.3-0.8c-0.5-1-0.9-4.7-0.9-10.3V32.2c0-0.9,0-1.9,0.1-2.6
		c0.8,0.9,2.2,2.5,3.4,3.9c0.8,1,1.6,1.9,2.1,2.5l11.8,13.4c3.9,4.5,5.8,6.7,6.5,7.6l0.1,0.2h0.2c0.7,0,1.2-0.3,1.3-0.8l0-0.1l0-0.1
		c-0.1-0.6-0.1-2.6-0.1-8.8l0-12.8c0-2.6,0-8,0.7-9.6c0.1-0.1,0.7-0.6,2.6-0.9L396.9,23.9L396.9,23.9L396.9,23.9z M351.4,23.8
		c0.2-0.3,0.3-0.7,0.3-1.1c-0.1-0.3-0.2-0.6-0.5-0.7l-0.1-0.1l-0.1,0c-1.8,0.1-3.1,0.1-5.3,0.1c-1.9,0-3.8,0-5.8-0.1l-0.1,0
		l-0.1,0.1c-0.2,0.2-0.4,0.4-0.4,0.8c-0.1,0.4,0,0.7,0.3,1l0.1,0.1l1.4,0.1c1.2,0.1,2,0.4,2.2,0.9c0.6,1,0.9,4.7,0.9,10.3v5.8
		c0,6-1.7,13.1-9.8,13.1c-6.8,0-9.9-4.2-9.9-13.2v-11c0-5.4,0.2-5.8,2.7-6l1.3-0.1l0.1-0.1c0.3-0.2,0.4-0.5,0.4-0.9
		c0-0.4-0.2-0.8-0.5-1l-0.1,0l-0.1,0c-2.4,0.1-4.1,0.1-6.2,0.1c-2.1,0-3.9-0.1-6.3-0.1l-0.1,0l-0.1,0c-0.3,0.2-0.5,0.6-0.5,1
		c0,0.4,0.1,0.8,0.4,0.9l0.1,0.1l1.4,0.1c2.5,0.2,2.7,0.6,2.7,6v12c0,6.1,1.3,9.9,4.1,12.3c2.2,1.9,5.5,2.9,9.7,2.9
		c4,0,7.8-1.5,10-3.8c2.5-2.6,3.7-6.7,3.7-12.4v-5.7c0-2.6,0-8.6,0.7-10.2c0.2-0.5,1.1-0.9,2.2-1l1.4-0.1L351.4,23.8L351.4,23.8z
		 M293,88.8c0.7-0.5,0.5-2.7-0.2-3c-5.2,0.2-9.4,0.4-14.1,0.4c-5.2,0-9.4-0.2-15.4-0.4c-0.7,0.4-1,2.6-0.2,3l3.2,0.2
		c6.3,0.5,7.2,2.6,7.2,15.4v43.9c0,12.8-0.2,14-7.1,15.2l-2.1,0.4c-0.7,0.7-0.5,2.7,0.2,3c4.8-0.1,8.9-0.4,14.1-0.4
		c4.8,0,8.9,0.1,15.5,0.4c0.7-0.4,1-2.6,0.2-3l-3.5-0.4c-6.8-0.7-7.4-2.4-7.4-15.2v-17.2c0-3.7,0.2-3.9,6.1-3.9h34.8
		c5.8,0,6.1,0.2,6.1,3.9v17.2c0,12.8,0,14-7.4,15.2l-2.3,0.4c-0.7,0.7-0.5,2.7,0.2,3c5.4-0.2,9.7-0.4,14.7-0.4
		c4.8,0,8.9,0.1,14.7,0.4c0.7-0.4,1-2.6,0.2-3l-2.9-0.4c-7.1-0.9-7.3-2.4-7.3-15.2v-43.9c0-12.8,0.2-14.6,7.3-15.4l2.6-0.2
		c0.7-0.5,0.5-2.7-0.2-3c-5.5,0.2-9.6,0.4-14.4,0.4c-5,0-9.1-0.1-14.7-0.4c-0.7,0.4-1,2.6-0.2,3l2.3,0.2c7.2,0.7,7.4,2.6,7.4,15.4
		v14c0,3.8-0.2,3.9-6.1,3.9h-34.8c-5.8,0-6.1-0.1-6.1-3.9v-14c0-12.8,0.2-14.6,7.3-15.4L293,88.8L293,88.8z M288.1,49.2l0-0.1
		l-0.1-0.1c-0.2-0.5-0.8-0.7-1.2-0.7c-0.3,0-0.5,0.1-0.7,0.2l-0.1,0.1c-1.5,2.9-2.8,4.4-3.4,4.7c-1.1,0.5-2.6,0.7-6.3,0.7
		c-4.2,0-5.3-0.5-5.9-1c-0.7-0.8-0.9-2.4-0.9-5v-7.2c0-1,0-1,1.3-1h2.9c1.8,0,3.1,0,3.8,0.2c0.7,0.2,1.1,0.6,1.3,1.6l0.5,2l0.1,0.2
		c0.2,0.2,0.5,0.4,1,0.4c0.5,0,0.8-0.2,1-0.5l0.1-0.1v-0.1c0-0.5,0-1.2-0.1-1.9c-0.1-0.9-0.1-2-0.1-3c0-1.1,0.1-2.1,0.1-3.1
		c0-0.8,0.1-1.5,0.1-2v-0.1l-0.1-0.1c-0.2-0.3-0.5-0.5-1-0.5c-0.4,0-0.8,0.1-0.9,0.4l-0.5,2.3c-0.2,1.2-0.5,1.3-1,1.5
		c-0.5,0.2-2.1,0.3-4.2,0.3h-2.9c-1.3,0-1.3,0-1.3-1V26.1c0-1.6,0-1.6,1.1-1.6h3.7c2.2,0,3.8,0.1,4.8,0.3c2.3,0.6,2.8,2,3.5,4.3
		l0.1,0.3l0.1,0.1c0.2,0.2,0.5,0.3,0.8,0.3c0.4,0,0.8-0.1,1.1-0.5l0.1-0.1l-0.1-0.8c-0.3-3-0.5-5.5-0.8-6.2l-0.1-0.3l-0.3,0.1
		c-0.6,0.1-3.7,0.1-6.8,0.1h-9.5c-2,0-3.6,0-6-0.1l-0.1,0l-0.1,0c-0.4,0.2-0.5,0.8-0.5,1c0,0.4,0.1,0.8,0.4,1l1,0.2
		c2.6,0.3,2.8,0.6,2.8,6v18.3c0,5.5-0.3,5.7-2.8,6l-1.8,0.2l-0.1,0.1c-0.3,0.3-0.3,0.8-0.3,1.1c0.1,0.4,0.2,0.7,0.5,0.8l0.1,0l0.1,0
		c2.9-0.1,4.7-0.2,6.9-0.2h4.6c4.4,0,8.9,0,13.6,0.2l0.3,0l0.1-0.2C286.4,54.9,287.7,51,288.1,49.2L288.1,49.2z M245.6,48.4V30.1
		c0-5.4,0.2-5.7,2.7-6l1.1-0.1l0.2-0.1c0.3-0.2,0.4-0.5,0.4-1c0-0.2-0.1-0.8-0.5-1l-0.1,0l-0.1,0c-2.5,0.1-4.1,0.1-6,0.1
		c-2.2,0-4-0.1-6.1-0.1l-0.1,0l-0.1,0c-0.4,0.2-0.5,0.8-0.5,1c0,0.4,0.1,0.8,0.4,1l1.1,0.2c2.6,0.3,2.7,0.6,2.7,6V36
		c0,1.2,0,1.2-2.1,1.2H224c-2.1,0-2.1,0-2.1-1.2v-5.8c0-5.4,0.2-5.7,2.7-6l1-0.1l0.2-0.1c0.3-0.2,0.4-0.5,0.4-1c0-0.2-0.1-0.8-0.5-1
		l-0.1,0l-0.1,0c-2.3,0.1-4,0.1-5.9,0.1c-1.3,0-2.5,0-3.7-0.1c-0.8,0-1.7-0.1-2.6-0.1l-0.1,0l-0.1,0c-0.4,0.2-0.5,0.8-0.5,1
		c0,0.4,0.1,0.8,0.4,1l0.1,0.1l1.4,0.1c2.2,0.2,2.6,0.6,2.6,6v18.3c0,5.3-0.1,5.5-2.6,6l-1,0.2l-0.1,0.1c-0.3,0.3-0.3,0.8-0.3,1.1
		c0.1,0.4,0.2,0.7,0.5,0.8l0.1,0l0.1,0c0.7,0,1.4,0,2-0.1c1.2,0,2.4-0.1,3.8-0.1c1.9,0,3.5,0,6.4,0.2l0.1,0l0.1,0
		c0.3-0.2,0.5-0.6,0.5-1c0-0.4-0.1-0.8-0.4-1l-1.6-0.2c-2.4-0.3-2.7-0.5-2.7-6v-7.2c0-1.2,0-1.2,2.1-1.2h14.5c2.1,0,2.1,0,2.1,1.2
		v7.2c0,5.4-0.1,5.5-2.8,6l-1.1,0.2l-0.1,0.1c-0.3,0.3-0.3,0.8-0.3,1.1c0.1,0.4,0.2,0.7,0.5,0.8l0.1,0l0.1,0
		c2.4-0.1,4.2-0.2,6.1-0.2c2,0,3.8,0.1,6.1,0.2l0.1,0l0.1,0c0.4-0.2,0.5-0.8,0.5-1c0-0.4-0.1-0.8-0.4-1l-1.4-0.2
		C245.8,54,245.6,53.8,245.6,48.4L245.6,48.4z M203.9,21.3l0-0.1l-0.1-0.1c-0.2-0.4-0.8-0.4-0.9-0.4c-0.1,0-0.3,0-0.5,0.1l-0.1,0.1
		l-0.1,0.1c-0.7,1.1-0.9,1.2-3.6,1.2h-21c-2.3,0-3.3-0.1-3.5-1.3l0-0.1l-0.1-0.1c-0.1-0.1-0.4-0.2-0.7-0.2c-0.1,0-0.5,0-0.8,0.2
		l-0.1,0.1l0,0.2c-0.4,2-1.1,5.2-1.9,7.5l-0.1,0.2l0.1,0.1c0.3,0.6,1.3,0.9,1.9,0.5l0.1-0.1l0-0.1c0.5-1.2,1-2.3,2.2-3.4
		c1.1-1,3.7-1.2,6-1.2h2.8c1.1,0,1.1,0,1.1,1.2v22.7c0,5.5-0.3,5.7-2.8,6l-1.8,0.2l-0.2,0.1c-0.3,0.2-0.5,0.6-0.5,1
		c0,0.3,0.1,0.8,0.5,0.9l0.1,0l0.1,0c3.1-0.1,5-0.2,7-0.2c2,0,3.6,0,6.6,0.2l0.1,0l0.1,0c0.3-0.2,0.5-0.6,0.5-1c0-0.4-0.1-0.8-0.4-1
		l-1.8-0.2c-2.5-0.2-2.7-0.6-2.7-6V25.6c0-0.5,0-1,0.1-1.1c0.1-0.1,0.6-0.1,1-0.1h3.6c2.7,0,4.6,0.4,5.7,1.2
		c0.5,0.4,0.9,1.6,1.1,3.4l0,0.1l0.1,0.1c0.2,0.2,0.5,0.4,0.9,0.4c0.5,0,0.9-0.2,1-0.5l0-0.1l0-0.1C203,27.5,203.4,23.4,203.9,21.3
		L203.9,21.3z M169.3,126.9c0,15.7,7.6,26.8,17.3,33.5c8.9,6,19.4,8.2,30.3,8.2c7.8,0,16.6-1.8,19.3-2.8c1.3-0.5,2.8-1,4.3-1.2
		c1.8-2.3,5-10.4,5.8-16.7c-0.5-0.9-2.3-1.1-3.2-0.5c-2.8,7.2-9.7,17.4-25.5,17.4c-20,0-36.2-14.1-36.2-39.7c0-25.2,15.8-37,34.5-37
		c17.7,0,23.2,9.5,25,17.8c0.9,0.7,2.7,0.6,3.3-0.2c-1-7.4-1.6-15.1-1.7-17.9c-1.1,0.1-1.9-0.1-3.4-0.5c-5.7-1.6-15-2.9-21.6-2.9
		c-12.7,0-24,3.4-32.9,10.4C175.4,101.8,169.3,113.3,169.3,126.9L169.3,126.9z M137.6,106.3l0-84.9c-68.2-6.6-119.6,0-119.6,0
		s0,84.9,0,84.9c5.4,57.5,59.3,64.3,59.8,64.2C87.5,168.8,132.6,159.7,137.6,106.3L137.6,106.3z M37.2,127.5
		c1.1,0.7,2.4,1.1,3.5,1.6c1.5,3.8,0,7.6-0.8,6C38.5,132.3,38,130.1,37.2,127.5L37.2,127.5z M37.3,85.8L37.3,85.8
		c-0.2-0.1-7.7,4.6-12.5,2.4c3.6-2,16.1-10,19.6-12.2c1.6,0.3,2.3-0.2,2.8-0.6c-1.3,0.1-5.6,0.8-3.5-3.1c0.8,3.5,6.9,0.3,9.1-0.2
		c6.1-1.4,6,5.1,5.5,7.8c-0.2,1,1.9,1.7,2.9,1.6c-1.7,4.3-4.7,0.2-5.1,1.9c-0.1,0.7-2.1,1.2-2.1,2.8c0,2.3,0.9,1,1,2.8
		c0.1,1.7-0.7,0.4-0.5,2.2c0.3,2.9,5.1-0.4,7.1,0.4c1,0.4,1.7,1.3,2.6,1.1c0.3-0.2,0.2-1.3,0.1-1.7c-0.1-0.9-1.8-1-2.6-2.3
		c-0.7-1.1,0.8-4.4,1.6-5.4c1.1,5.5,6.3,3.8,7,9.5c0.5,1.6-1.8,3.4,0.1,6.1c-1.4,1.3-3,7.5-0.1,10.5c-0.5,1.3-1.1,4.4,1.4,6.2
		c-0.8,1.8-0.7,4,0.1,6.2c-1.6,0-1.3-8.8-10.6-9.1c-0.2-0.1-0.3,1,0,1.5c1.1,2,2.6,1.9,2.3,6.5c-0.1,1.6-1-0.3-1.5-0.7
		c-1.1-1-2-1.1-2.5-4.4c-3.8,3-3.4,6.6-3.2,8.5c0,0-0.8-2.3-1.8-4.7c-0.1-0.1,3.9-4.8,4.5-6c7.9-14.3-5.1,4.6-5.1,4.5
		c-0.7-1.6-1.3-3-1.7-3.5c0.1-0.2,2.3-2.6,3.3-4.7c6.1-12.8-3.6,4.2-4,3.9c-0.7-0.7-1.3-1.5-1.8-1.2c-0.1,2-0.6,1.7-0.4,3.7
		c-1,1.4-3.2,3.5-4.7,4.6c0,0-0.4-3.5-0.3-3.7c0.8-0.9,3.8-4.2,4.4-5.1c10-15.8-4.7,3.8-4.7,3.6c-0.1-0.6-0.9-1.7-1.8-2.5
		c0,0,3.3-4.4,4.1-6.1c6.1-12.6-4.9,5.6-5,5.5c-0.3-0.1-0.3-0.1-0.6-0.2c-0.3-0.1,0.3-3.6,0.8-5.7c0.8-4.2-1.4-0.8-2,5.8
		c-0.6,0.1-1.9,0.2-2.5,0.7c0.3,1.8,0.8,0.4,1.5,2.1c0.9,2-1.2,5.4,0.6,7.8c0.7,0.9,0.8,0.8,0.6,1.4c-1.1-0.1-1.8-0.1-2.5,0.9
		c-1.4-6.4-1.4-9.4-1-15.9c0.1-2.9,1.1-7.4,0.7-7.5c-0.4-0.1-7.1,17.1-8.7,20.4c-2.8-0.9,1.7-15.8,7.5-22.9c0.5-2.3-3,2.3-5.2,4.1
		c-2,1.7-4.4,3.8-7.1,3.1c3.5-3.7,11.4-10.5,12.3-12.2c0.7-1.5-5.4,4.6-11.9,2.3C27.4,94.3,37.3,89.3,37.3,85.8L37.3,85.8z M49,118
		c0,1.6-0.1,2.7,0.4,4.3c0.7,2.4,0.4,1.7-0.6,0.8c-0.8-0.9-1.5-1.6-1.9-2.7C46.7,119.7,47.3,119.7,49,118L49,118z M64.8,79.4
		c-1-1.6,1.1-3.2,1.1-3.2c-0.1,4.6,5.8,1.4,8.8,2.9c0.7,0.3,1.2,1,1.5,1.7C73,78.5,66.9,83.1,64.8,79.4L64.8,79.4z M30.5,43
		c-5.2,0-5.1-7.8,0-7.8C35.6,35.2,35.6,43,30.5,43L30.5,43z M30.5,58.5c-5.3,0-5.3-7.8,0-7.8C35.6,50.8,35.6,58.5,30.5,58.5
		L30.5,58.5z M40.4,41.7h-4.5v-4.5h4.5V41.7L40.4,41.7z M40.4,57.3h-4.5v-4.5h4.5V57.3L40.4,57.3z M77,64.9c0,0-4.7-2.6-10.3-2.9
		c-5.4-0.4-16.3,3.9-24.6,3.4V28.7c0,0,9.5,1.3,13.4-0.2C68.8,23.3,77,29,77,29V64.9L77,64.9z M86.2,70.9c0.2,1.4-1.1,1.7-1,1.7
		c2,0.5,3-0.7,3.3-1.5c0.8,3.2-2.4,3.4-3.5,3.6c0,0,1.6,0.5,1.7,1.5c0.2,2.7,1.9,2.5,2.3,2.3c-0.1,0.3-0.6,2-2.5,0.5
		c-0.3,0.3,0.5,0.8,0.7,2.2c0.2,1.7,0.2,3.3,2.1,4.3c-1.2,1-2.6-1.5-2.7-1.2c-0.1,0.3,1.7,1.2-0.3,5.9c-0.9-0.5-0.4-0.4-1.5-1.7
		c-0.8-0.7-1.1-0.8-0.4,0.3c1.2,1.5,1.4,4.8,1,5.7c-1-0.4-0.7-1.2-1.9-2.2c-0.1,0.4,0.3,2.7,1.5,3.7c2,1.8,2.8,4.1,2.8,4.5
		c0.2,1.7-0.4,3.9-0.6,6c-1-0.1-1.8-2.9-2-2.8c-0.3,0.2,0.1,2.7,2,4.4c0.9,2.6,0.5,4,0.3,4.1c-0.3,0.1-1.3-2.7-1.8-2.2
		c2.6,6.7,0.8,9,0.1,11c-0.5-2.1-0.8-3.7-1.5-6.1c-1.4,1.1-1.8,2.8-3.5,4.3c0-2.7-1.6-9.3-2.8-10.8c-0.1-0.1-2.3,5.9-3.3,8.5
		c-1.3,3.4-1.5,7.7,0,11.1c-3.2-4.6-3.6-13.2-0.8-14.3c0.2-0.6-0.2-2.6-0.8-2.4c-0.2,1-0.1,1.8-0.9,2.8c-2.1-0.6-1.2-3.2-1-4.1
		c2.8-3.3,1-4.1,0.9-4c-0.3,0.8-0.6,1.7-1.4,2c-1.8-3.1-0.6-7.9,2.7-11.5c0.1-1.3-1.5,1-2.6,0.9c-0.3-2.6,0.7-7.1,5.4-7.2
		c-0.9-0.3-1.4-0.4-1.6-1.2c1.4-0.2,6-0.6,5.2-4.1c-0.4,0.4-0.6,1.1-1.7,1.8c-0.8,0.5-1.7,0.5-2.1-0.2c2.1-0.7,1.4-3.3-1.3-2.5
		c-0.8,0.2-2.1-0.6-2.1-1.6c0.6,0.6,1.8,0.2,2.6-0.3c3.1-2,5,0.9,5.4,1.5c0.1,0,1.4-2.9-3-3.7c-0.4-1-1.4-2.8-4.3-2.6
		c-1-3.5-3.9-1.8-3.9-0.2c-3.2-2.3,0.1-5.3,1.3-5.7c0.9,0.1,0.7,2.9,2.2,2.4c0.4-0.1-1.2-1.9-0.6-2.7c1.4-0.8,1.4,1,2.1,0.4
		c0.3-1.2,1.7-1.9,2.9-2C80.6,69.1,83.1,72.6,86.2,70.9L86.2,70.9z M115.2,65.5C108.2,66,93.7,62,90,62c-7.6,0-11.3,3-11.3,3
		s0-34.6,0-35.8c0,0,10-4.7,17.3-2c8.9,3.3,19.2,1.8,19.2,1.8V65.5L115.2,65.5z M124.4,51.4c3.9-0.6,4.4,4,4.4,4h0
		c-1-0.8-2.9-1.1-4.2-0.3c-4.3,2.8-8.2,2.8-8.2,2.8v-7C116.5,51,117.3,52.4,124.4,51.4L124.4,51.4z M129,41.9c0-0.2-0.1-0.5-0.1-1
		c-0.1-0.7-2.1-1.1-3.5-0.5c-2,0.9-6.9,3.7-8.7,3.2v-7c4.4,1.9,6.2,0.2,7.6,0.2c4.4,0,4.6,4.1,4.6,4.1
		C128.9,41.3,128.9,41.7,129,41.9L129,41.9z M124,113.9c-1.3,0.3-4.7,1.7-5.6,3.1c0.4-7.4-2-14.7-2.7-16.4c-1.5-3.4,0.7,8,0.8,10.6
		c0,0.1-12.3-15.8-4.9-3.5c1.9,3.2,4.9,5.3,4.9,5.3c0.1,2.2-0.1,3.8-0.5,5c-0.8,0.6-16.8-21.3-7.9-6.1c1.1,1.9,7.5,7.6,7.5,7.7
		c-0.4,0.9-1.1,2.1-2.1,3c-0.2-0.2-3.7-2.8-3.7-2.9c-0.3-1.7-0.3-3.3-2.4-2.1c0,0-7.9-9.2-4.2-2.7c1.6,2.8,2.6,3.1,3.1,3.6
		c0,0-1.2,1.7-1.6,3.4c-0.2,0.7-6.8-7.4-4.2-2.3c0.8,1.6,3.9,3.4,3.9,3.5c-0.3,1.1-0.6,2.1-1,2.8c-0.4,0.8-6.3,5.5-6.3,5.5
		c0,0,1.1-3.7,3.6-5.5c1.4-1,1.4-0.8,2.4-1.4c0-0.5-0.5-1.4-1.2-1.7c-0.9-0.3-3.6,0.2-3.6,0.2c0.3-1.4-1-4.4-0.9-7.7
		c-1,0.1-2.9,1.7-3.3,2.6c-0.3,5.5-1.5,3.8-2.6,7.7c-1.2-1.6,0.1-4-1.1-5.5c-1.6-2.1-1.9-3.5-2.1-6.2c0.4-0.2,2-2,0.5-5.9
		c-0.2-6,2.5-8.3-2.4-12.6c0.4-0.1,0.7-3.2,0.7-3.2c3.6,1.9,2.9-2.2,4.2-3C93.4,88,93,86.7,92,85c6.3,1.8-0.3,6.1,2.6,6.2
		c2.1,0.1,3.4-0.5,4.3-1.8c1-1.5-0.2-2.4,2.5-4.7c0.3-0.2,1-1.8-1.1-2.3c-0.5-0.1,0-1.9,0-1.9c-1.7,1.4-2.2,3.5-5,2.2
		c-1.4-0.7-2.3,0-2.9,0.3c0,0-0.3-1.1,0.9-1.5c3-1,3.7-2.2,3.6-2.8c-0.4-1.5-0.5,0-0.4-1.6c0-0.6,0.8-1.5,1.4-2.3
		c2-2.4,3.5-1.5,4-1.3c1.2-0.9,1.4-0.8,2.5-1.3c1.9-0.7,5.9,0.5,8.2,1.5c1.1,0.5,2.4,0.8,3.7,0.5c0,0.7-0.5,1-0.9,1.2
		c-0.7,0.2-1.6,0-1.5,0.5c0,0.3,1,0.4,1.6,0.5c3.4,0.9,7.7,3.9,4.9,3.3c-0.3-0.1,2.1,1.8,3.9,4.2l6.4,6.2c-0.3,0.4-2.5,0-9.7-6.6
		c-1,0.9,8.7,8.2,12.6,15.9c-0.3,0.2-5.3-1.6-7.1-3.4c-2.8-2.9-5.9-10.1-7.2-9.1c-0.2,0.1,5.3,8.5,7.9,13.5c1.3,2.5,2.5,6.1,2.5,8.9
		c0.4,13.5-1.6,12.4-1.6,12.4c-3.2-10.6-4.6-22.9-9.2-28.6C117,90.7,123.7,102.9,124,113.9L124,113.9z M110.1,126
		c-1.4,1.2-2.4,1.7-2,1.1c0.3-0.7,0.6-1.3,0.8-1.8C108.9,125.1,110.1,126,110.1,126L110.1,126z M109.1,124.4
		c0.3-1.1,0.3-1.9,0.5-2.9c0.1-0.4,0.1-0.4,0.1-0.7c0-0.1,3.1,2.6,3.3,2.7c-0.8,1-1.4,1.3-2.2,2
		C110.3,124.9,109.1,124.5,109.1,124.4L109.1,124.4z M119.1,127.8c-4.3,4.2-10.7,2.7-15.7,5c-4.6,1.7-7.9,5.9-12.7,7
		c-1.4,0.5-1.6,1.2-0.7,1.1c0.5,0,3.4,3,8.1,0.7c1.6-0.8,6.4-3.5,7.2-3.6c-2.6,2.5-3.9,4.7-6.3,6.1c-1.4,0.8-7.3,2.9-13.1,1.8
		c-2.6-0.5-4.6,1.9-3.9,1.8c1.4-0.4,2.9-0.2,3.9,1c1.7,1.3,4.1,3,6.3,0.5c0.7-0.8,4.1-2.6,7.2,0.6c-3.3-0.2-3,5.8-9.4,5.1
		c-2.3,0-7.5-5.4-9-3.7c-2.6,2.9,5.6,5.7,2.1,9.5c-3.2,3.3-7.1-2.7-7.1-2.7c2,0.8,5.7,1.4,4.1-1.9c-0.7-1.3-1.9-2.5-1.9-4.9
		c-0.3-1.2-7.7,9.5-12.6,4.7c-1.9-1.9-5.8-6.1-9.3-7.7c9.3-0.8,10.8,2.9,11.2,3.5c3,4,5.7-0.1,6.4-0.8c1-1.1,2.3-2.6,1.9-2.9
		c-3.6-1.7-7.8-2.1-10.8-0.7c6.6-9.1,11.8-0.6,11.8-0.6c0.7,0.5-0.2-5.4-6.7-5.7c-4.1-0.2-7.7,3.5-10.5,3.5c-2.3,0-9.2-4.7-10.9-8.9
		c4,3,9.2,4.8,12.4,2.8c6-3.6,13.6,1.8,14,1.2c-1.7-1.3-5.5-6.5-15.9-3.5c-4,2.3-5.7-1.7-8.2-1.8c4.2-3.7,7.1-1.8,8.6-1.7
		c0.3,0-1.8-1.7-3.2-1.9c-11.5-1.2-18.7-4.3-18.7-4.3c-0.1,0,1-2.3,5.9-0.6c0,0-4.4-2.7-4.4-6.2c0.1-2.1,1.2-4.4-0.5-6.2
		c6.7-0.3,1.9,9,6.6,11.4c0.1,0-1.4-2.2,0.7-4c1,2.7,3.3,4.1,5,4.6c0.4-0.2,0.9-1.1,0.9-1c-1.8-2.9-2-6.3-1.5-10.2l0.1,0
		c0.4,0,1,1.3,1.5,2.3c1,2.1,0.9,5.1,2.9,7.6c1.1,1.4,1.7,2.7,2.7,3.4c0.4-1,0.1-2.6,0-3.1c-0.2-1.6-1.2-4.3,1.5-6.8
		c1.3,3.6,3,2.6,3.2,4.3c0.3,2.4,0.2,2.1,0,3.9c0.1,2.6,2.5,3.3,4.6,5c4.7,2.6,7.8,3.9,9.9,7.2c1-5.5-13.9-6.6-12-17.3
		c-0.2-4.3,0.5-4.6-2.5-7.2c6,0.2,9.3,10,9.6,11.8c0.6,3.3,2.6,3.5,5.3,7.8c0.4,0.1-4.9-11.5,1.4-21.4c0,0,2.1,5.2,1.1,8.5
		c-0.6,2,0,4.3,0.1,5.6c0.1,1.3-0.3-4.7,4.3-7.8c0.3,2.3,2.5,5.8,0.4,9.6c-2.5,4.6-2.7,2.9-2.7,8.6c0.2-0.1,0.9-3.9,2.6-6
		c3.6-4.6,1-7,4.6-10.9c0.3,2,0.8,1.2,1,2.9c0.5,3.9-3.6,8.3-2.7,8.1c1-0.1,2.7-1.1,3.3-4.1c0,0,1.5,2.7,0.1,3.6
		c-2.5,1.6-3,3.4-2.6,5.4c2-2.4,4.8-5.1,4.3-8.5c0.2-2.1,2.5-2.9,2.9-7.7c0.1-0.8,0.9-1.8,1.7-2.2c-0.3,2.7,1.7,5.5-0.6,8.8
		c0.5,0.3,2.6-2.6,5.5-1.5c-5.9,1.1-4.2,7.5-8.7,10.4c-1.4,0.9-1.1,1.9-1.5,2c4-0.2,7.2-5.1,7.7-5.4c4.1-2.8,5-3.2,6.6-7.6
		c0.6-1.7,0.2-2.4,2.4-4.7c1,2.3-0.4,6.9-0.8,7.9c-0.7,2.2-3.3,4-2.7,4c10.9-4.8,10.8-8,13.4-11.5c0.8-1.3,4.7-3.6,6.1-3.8
		c-0.4,0.7-1.9,1.9-1.9,3.2c-0.1,2.4-0.9,3.9-2.1,5.8c0.7,0.8,2-1.6,3.3-0.4C121.3,124.7,120.5,126.6,119.1,127.8L119.1,127.8z
		 M120.9,127.1c-0.6,3.2-1.7,6.1-3.7,8.9c-1.3,1.9-1.9-1.8-0.7-5.5C118.2,129.9,119.8,128.6,120.9,127.1L120.9,127.1z M112.6,46.5
		c-0.3-0.1-0.8-0.2-1.1-0.2c-0.3,0-0.5,0.5-0.1,0.6c0.3,0.1,0.8,0.2,1.2,0.2C113,47.2,112.9,46.6,112.6,46.5L112.6,46.5z
		 M111.4,48.1c0.3,0.1,0.7,0.1,1.2,0.2c0.3,0,0.2-0.5,0-0.6c-0.2-0.1-0.8-0.2-1.1-0.2C111.1,47.5,111,47.9,111.4,48.1L111.4,48.1z
		 M111.4,55c-0.2-0.3-0.9-0.8-1.5-1.2c-0.3,0.3-1,0.8-1.5,1c-0.3-0.4-0.8-0.9-1.4-1.4c-0.4,0.3-1.5,1.3-2,1.6c0.7,0,1.7,0.2,1.8,0.9
		c0,0.5,0,3.8,0,4.4c0.4,0.1,0.9,0,1.6,0c0-0.5,0-4.3,0-4.7c0.2-0.1,0.5-0.2,0.6-0.3c0.2,0.2,1,1,1.4,1.2c0.3-0.2,1-0.9,1.4-1.2
		C112.1,55,111.7,54.7,111.4,55L111.4,55z M109.5,49.5c0.4-0.7,1-1.9,0.9-2.8c-0.1-1.1-0.7-2.7-2.3-3.2c-2,0.7-3.3,2.3-3.3,4.2
		c0,1.1,0.9,3.4,2.9,3.4C108.2,50.5,108.8,49.9,109.5,49.5L109.5,49.5z M108.2,49.9c-0.4-0.2-1.7-1.2-2.1-2.1
		c-0.4-1.1-0.4-2.3,0.8-3c0.9,0.3,2,1.2,2.1,2C109.1,48,108.8,49.2,108.2,49.9L108.2,49.9z M108.2,41.5l1.5-1.6c0,0-0.6-0.5-1-1
		c0-0.3,0-3.5,0.1-3.7c-1.1-1-1.9-1.1-2.4-1c-0.9,0.1-1.8,1.3-2.1,1.7c-0.2,0.3-0.2,0.7,0,0.8c0.2,0.1,0.4,0.3,0.6,0.4
		c0,0-0.1,0-0.1-0.1c-0.4,0.4-1,1.5-1,2.3c0,0.8,0.7,1.9,1.2,2.3c0.5-0.4,1.3-1.1,2.4-1.3C107.5,40.9,107.8,41.2,108.2,41.5
		L108.2,41.5z M107.3,37.8c-0.7-0.3-2.1-0.9-2.7-1.3c-0.1-0.1-0.2-0.2,0-0.4c0.3-0.5,0.7-0.9,1-0.9c0.2,0,1.7,0.8,1.6,1.2
		C107.3,36.6,107.3,37.2,107.3,37.8L107.3,37.8z M107.3,40c-0.4,0-0.7,0.1-1.2,0.3c-0.4-0.3-1.4-1.6-0.7-2.9
		c-0.1-0.1-0.2-0.1-0.3-0.2c0.7,0.4,1.5,0.7,2.1,0.9c0,0.5,0,1,0,1.2C107.3,39.6,107.3,39.8,107.3,40L107.3,40z M103.1,33.4
		c-0.3,0-2.7,0-2.7-0.1c-0.2-0.5-0.2-1.1,0.2-1.9c0.2-0.4-0.2-0.6-0.3-0.2c-0.1,0.4-1.3,2-2.5,2.5c-0.6,0.2,0.8,0.8,0.7,0.8
		c0,1.5,0.2,3.8,0.5,4.8c0.2,0.6,0.8,1.4,1.3,1.2c0.3-0.2,0.9-1.4,1.1-1.5c0.3-0.3,0-0.7-0.3-0.5c-0.3,0.3-0.6-0.2-0.7-0.4
		c-0.1-0.3-0.4-3.7-0.2-3.7c0,0,2.7-0.3,3-0.3C103.3,34,103.3,33.4,103.1,33.4L103.1,33.4z M95.6,39.6l1.1-1.5
		c-0.8-0.1-1.2-0.3-1.7-0.9l0-3.6l-1.2-1.2l-0.4,0l-1.8,1.6c-0.2,0.3,0.3,0.3,0.5-0.1l1.3,0.8l0.1,3.5c0.1,0.4,0.4,0.8,1,1.3H95.6
		L95.6,39.6z M94.7,31.6l0.6-0.5v-0.9l-0.9-0.8L93.6,30l0,1l0.5,0.5H94.7L94.7,31.6z M91.8,30.4c-0.5-0.1-2.1,0.1-2.7,0.2
		C88.5,30.7,88.5,31,89,31c0.5,0,0.6,0.2,0.8,0.8c0.2,0.6-0.9,3.6-1.2,4.3c-0.3-0.5-1.6-3.2-1.6-3.6c0-0.3,0.5-0.5,0.8-0.6
		c0.5-0.1,0.4-0.5,0.1-0.5c-1-0.1-4.3-0.4-4.9-0.5c-0.4,0-0.6,0.5-0.1,0.5c0.5,0,1.1-0.1,1.7,0.7c0.7,1,2.8,5.6,3.3,7.5
		c0.3-0.4,2.4-6.6,2.5-7.2c0.2-0.6,0.6-1.3,1.2-1.5C92.3,30.8,92.3,30.5,91.8,30.4L91.8,30.4z M81.6,45.4c0,2.6,1.1,2.8,2.2,3.5
		c1.1,0.6,3,0.5,4.4,0.1c0.5-0.2,0.8-0.2,0.8,0.3c0,0.3,0.4,0.2,0.4,0c0-0.2,0-2.4,0-2.6c0-0.3-0.4-0.2-0.4,0c0,0.4,0,0.5-0.4,1
		c-1,1.4-3.4,1.4-4.7-0.4c-0.4-0.6-0.8-1.4-0.3-1.5c0.5-0.2,2.1,0.2,3.1,0.3c0.6,0,2,0.2,2.2,0.3c0.2,0.1,0.4,0.3,0.4,0
		c0-0.3,0-1.3,0-1.6c0-0.3-0.2-0.2-0.4,0c-0.2,0.1-1.7,0.4-2.3,0.5c-0.6,0.1-2.5,0.3-3,0.1c-0.5-0.2-0.3-1.2,0.1-1.8
		c1.3-1.7,3.9-1.6,4.9-0.2c0.3,0.5,0.3,0.6,0.3,1c0,0.2,0.4,0.3,0.4,0c0-0.2,0-2.8,0-3.1c0-0.2-0.4-0.3-0.4,0c0,0.2-0.4,0.3-0.8,0.2
		c-0.8-0.3-3.2,0.1-4.3,0.7C83.1,42.6,81.6,43.8,81.6,45.4L81.6,45.4z M82.1,50c0,0.7,0.3,7,0.2,7.9c0,0.5,0.6,1,1.2,1.4
		c0.3-0.4,0.9-1.3,1.5-1.7c0.3-0.3,0.1-0.4-0.1-0.3c-0.5,0.2-1,0-1-0.5c0-0.6,0-6,0-6.8C83.5,50,82.4,50,82.1,50L82.1,50z
		 M87.3,55.1c-0.4,0.4-1.2,1.4-1.1,2.2c0,0.8,0.4,1.5,0.8,1.9c0.8-0.5,1.2-1.3,2.5-1.8c0.2,0.6,0.6,0.7,1.1,1.1
		c0.3-0.3,1.4-1.7,1.6-1.9c0.2-0.2,0.1-0.5-0.2-0.2c-0.3,0.2-0.6,0.1-1.1-0.5c0-0.3,0-3,0.1-3.2c-0.5-0.6-1-1.3-1.6-1.3
		c-0.9,0.1-2,1.6-2.3,2c-0.2,0.3,0,1.4,0.2,1.5C87.2,55.1,87.2,55.1,87.3,55.1L87.3,55.1z M87.9,55.6c0.5,0.3,0.7,0.1,1.5,0
		c0,0.5,0,0.9,0,1.2c-0.3,0.2-0.8,0.5-1.2,0.7C87.8,57.1,87.2,56.9,87.9,55.6L87.9,55.6z M87.5,53.3c0.3-0.5,0.5-0.6,0.8-0.6
		c0.2,0,1.1,0.6,1.1,1.1c0,0.3,0.1,0.8,0.1,1.4c-0.7,0.1-1.2,0.2-1.9-0.5C87.4,54.6,87.3,53.6,87.5,53.3L87.5,53.3z M93,52.3
		c-0.6,0.3,0.8,0.8,0.7,0.8c0,1.5-0.3,4,0.2,4.8c0.3,0.5,1.1,0.8,1.6,0.6c0.5-0.2,1.1-1.1,1.3-1.3c0.4-0.3,0.1-0.5-0.2-0.3
		c-0.3,0.3-1.1,0.1-1.2-0.2c-0.1-0.3-0.2-3.6,0-3.7c0,0,0.9,0,1.2,0c0.2,0,0.2-0.6,0-0.6c-0.3,0-1.1-0.1-1.2-0.2
		c-0.1-0.3,0-1.3,0.2-1.7c0.2-0.4-0.2-0.6-0.3-0.2C95,50.8,94,51.8,93,52.3L93,52.3z M93.2,45.4c0.1,1.4-0.7,3-1.5,3.6
		c1.4-0.4,1.6-1.2,2.4-2.2c0.4,0.6,1.2,1.4,1.8,1.7c0.4-0.3,1.6-1.6,1.8-1.8c-0.8-0.2-2.4-1.1-2.8-2c-0.3-0.7-0.2-1,0.1-1.5
		c0.3,0.4,2.2,1.3,3.1-0.2c-1-0.4-1.8-1-2.1-1.5c-0.3,0.2-1.1,1.1-1.6,1.4c-0.1-0.5-0.9-1.1-1.5-1.2c-0.2,0.2-1.7,1.4-2.4,1.7
		c-0.2,0.1-0.1,0.6,0.2,0.4c0.3-0.1,0.7-0.5,1.3-0.7C92.5,43.5,93.2,44.1,93.2,45.4L93.2,45.4z M100,45.6c0.2-0.9,0.8-1.2,1.1-1.5
		c0.4,0.4,0.8,0.9,1.4,0.9c0.6,0,1.2-0.3,1.4-0.5c-0.5-0.4-1.6-1.5-1.8-1.8c-0.6,0.3-3,1.6-3.2,3c-0.3,2.1,0.4,2.6,1.3,3.7
		c0.5,0.7,1.4,0.7,1.8,0.6c0.4-0.3,2-1.8,2.2-2c0.2-0.2-0.1-0.4-0.3-0.2c-0.2,0.2-0.1,0.3-0.4,0.3c-0.3,0-1.3,0.2-2-0.1
		C100.8,47.8,99.8,46.8,100,45.6L100,45.6z M98.8,52.5c-0.4,0.4-1,0.8-1.6,1.4c0.5,0,0.9,0.1,1.1,0.6c0.2,0.5,0,2.4,0.1,3.1
		c0,0.7,0.5,0.9,1.1,1.5c0.6-0.1,2.2-0.8,2.7-1.2c0,0.6,0.7,1.3,1.2,1.4c0.3-0.3,0.6-0.5,1.1-0.9c-0.4-0.3-0.4-0.3-0.5-0.9
		c-0.1-0.5,0-2.6,0-3.5c-0.3-0.5-0.9-1.1-1.5-1.6c-0.4,0.4-0.9,0.9-1.6,1.5c0.5-0.1,1.4,0.1,1.5,0.5c0,0.5,0.1,1.6,0,2.5
		c-0.1,0.9-2.5,0.5-2.5-0.1c-0.1-0.6,0.1-2.4,0.1-3.2C99.6,53.2,99.4,52.9,98.8,52.5L98.8,52.5z M83.1,73.8L83.1,73.8
		c-1.4-0.3-2.4-1.2-3.7-1.7c-1.7-0.7-3.6,0.7-3.6,0.9c0,0.5,0.5,0.7,1.9-0.2c-1.1,1.3,0.1,2.3,0.1,2.3c-0.5-0.1-1.1-0.2-1.5-0.5
		c-0.1,0.5,0.5,0.6,0.8,0.8C79.5,76.4,81,74.2,83.1,73.8L83.1,73.8z M79.2,75c0,0,0.6-0.7,0.6-1.1c0-0.6-0.6-1.1-0.6-1.1
		c0.5,0.2,1.8,0.9,2.2,1.1L79.2,75L79.2,75z M66.4,57.3l0.7-0.7c-0.8-0.1-0.4-0.1-0.8-0.5l0-3.1l-1-1.4l-0.4,0.1l-1.5,1.4
		c-0.4,0.4,0,0.5,0.4,0.1l1,0.5l0,3.2c0.1,0.4,0.4,0.5,0.9,1L66.4,57.3L66.4,57.3z M66.8,46.7c0.5,1.5,1.7,1.9,2.6,2
		c0.3-0.5,0.8-1.3,1-1.6c0.4-0.5,0-0.9-0.3-0.2c-0.2,0.5-1.4,0-1.8-0.5c-0.6-0.5-0.9-1.9-0.5-2.4c0.5-0.5,1.1-0.3,2-0.3
		c0.6,0,0.7-0.5,0.8-0.8c-0.3-0.1-0.7-0.4-1.2-0.7c-0.5,0.3-1.4,1.1-1.8,1.4C67.2,43.9,66.2,45.3,66.8,46.7L66.8,46.7z M69,54.8
		c-0.6,0.6-1,1.2-1,2c0,0.8,0.3,1.5,1,1.8c0.7-0.5,1.6-1.1,2.4-1.3c0.4,0.5,1,0.8,1.4,1.1c0.3-0.3,1.1-1,1.3-1.2
		c0.2-0.2,0-0.5-0.2-0.2c-0.2,0.3-0.8,0.1-0.9-0.2c0-0.3-0.3-3.7-0.2-3.9c-0.5-0.5-1.3-1.8-1.9-1.7c-0.8,0.1-2.1,1.3-2.3,1.7
		c-0.2,0.3,0.1,1.7,0.2,1.8C68.9,54.7,68.9,54.7,69,54.8L69,54.8z M71.1,55.1c-0.6,0-1.2-0.2-1.8-0.8c-0.1-0.1-0.3-0.9-0.1-1.1
		c0.3-0.5,0.3-0.6,0.6-0.6c0.2,0,1.5,0.8,1.4,1.2C71.2,54,71.2,54.5,71.1,55.1L71.1,55.1z M69.5,55.2c0.6,0.4,0.9,0.3,1.6,0.3
		c0,0.4-0.1,0.7-0.1,0.9c0,0.2,0.1,0.3,0.1,0.5c-0.4,0.1-0.8,0.2-1.2,0.4C69.6,56.9,68.4,56.1,69.5,55.2L69.5,55.2z M74.2,48.9
		l0.7-0.7c-0.8-0.1-0.8-0.1-1.2-0.5l0-3.5l-0.7-1l-0.4,0l-1.5,1.4c-0.4,0.4,0,0.5,0.4,0.1l0.8,0.5l0,3.3c0.1,0.4,0.4,0.5,0.9,1
		L74.2,48.9L74.2,48.9z M73,36.5c-0.3,0-0.8,0.6,1.1,0.8C74.3,37.3,74.7,36.6,73,36.5L73,36.5z M73,35.4c-0.3,0-0.8,0.8,1.1,0.8
		C74.4,36.2,74.6,35.5,73,35.4L73,35.4z M73.4,41l-0.8-0.8l-0.8,0.7l0,1l0.5,0.5h0.5l0.6-0.5V41L73.4,41z M71.8,33.4
		c-0.5-0.4-1.1-1.3-2.4-1.3c-1.3-0.1-2.8,1.1-3.3,1.9c-0.6,1,0.1,1.8,1,2.5c-0.5,0.5-1.3,1.2-1.9,1.8c0.3,0.3,1.8,1,2.6,1
		c1.3,0,2.4-0.7,3.2-1.3c1.3-1,0.9-2.1-0.5-2.9c-0.1-0.1-0.3-0.1-0.4-0.1C70.8,34.2,71.6,33.6,71.8,33.4L71.8,33.4z M68.4,36.1
		c0.4,0.2,0.9,0.4,1.4,0.7c0.7,0.4,0.3,1.2-0.4,1.5c-0.8,0.4-2.2-0.6-2.4-1.1C67.3,37,67.8,36.6,68.4,36.1L68.4,36.1z M69.8,34.3
		c-0.1,0.1-0.4,0.4-0.8,0.7c-0.2,0-0.4,0.1-0.6,0c-0.7-0.1-1-0.6-1.3-1c-0.3-0.4,0.5-0.8,0.9-0.7C68.4,33.3,69.3,33.8,69.8,34.3
		L69.8,34.3z M64.4,37.1c-1.9,0.5-2.8-1.1-3-1.5c0.8-0.8,2.1-2.1,2.9-2.8c-0.5-0.5-0.8-1.3-1.7-1.4c-0.8,0-2.8,1-3.1,3.4
		c-0.3,2.4,1.9,3.6,3.7,3.7c0.6,0,1.3-0.8,1.7-0.9C65.6,37.3,65.3,36.9,64.4,37.1L64.4,37.1z M61.2,35.2c-0.5-1.6-0.3-2.1,0.7-2.9
		c0.2,0.5,0.8,0.9,1.1,1.1C62.4,34,61.6,34.9,61.2,35.2L61.2,35.2z M59,33.8c0.3-0.3,0-0.6-0.3-0.3c-0.2-0.3-0.8-0.8-1.1-1.2
		c-0.3,0.3-1,0.7-1.5,0.9c-0.3-0.4-0.7-0.4-1.3-0.9c-0.4,0.3-1.1,0.8-1.6,1.4c0.7,0.2,1.3,0.3,1.3,0.9c0,0.5-0.1,3.7,0,4.3
		c0.4,0.1,0.9,0,1.4,0c0-0.5,0-4.5,0-4.9c0.2-0.1,0.4-0.2,0.5-0.3c0.2,0.2,0.7,0.9,1.1,1.1C57.9,34.6,58.6,34.1,59,33.8L59,33.8z
		 M52.8,42.1c-0.8,0.1-2.1,1.1-2.4,1.9c-0.1,0.3,0.1,1.6,0.2,1.7c0.1,0.1,0.2,0.2,0.3,0.2c-0.6,0.5-1.1,1-1.1,1.7
		c0,0.7,0.6,1.4,1.4,1.7c0.4-0.6,1-1,1.7-1.2c0.1,0.6,0.2,1,0.6,1.3c0.3-0.3,1.4-1.3,1.6-1.5c0.2-0.2,0.1-0.5-0.2-0.2
		c-0.2,0.2-0.6-0.1-0.7-0.3c0-0.3,0-3.7,0.1-3.9C53.9,43.1,53.4,42,52.8,42.1L52.8,42.1z M52.9,45.5c-0.9,0.6-1.2,0.6-1.9-0.1
		c-0.3-0.4-0.3-1.1-0.1-1.3c0.3-0.5,0.8-0.9,1-0.9c0.2,0,1,0.9,0.9,1.3C52.9,44.7,52.9,45.1,52.9,45.5L52.9,45.5z M52.9,47.2
		c0,0.2,0,0.3,0,0.5c-0.2,0-0.4,0.1-0.6,0.2c-0.3-0.3-2-0.8-0.9-1.7c0.7,0.4,0.9,0.1,1.5-0.3C52.9,46.5,52.9,47,52.9,47.2L52.9,47.2
		z M52.2,40c-0.1-0.1-0.3-0.4-0.3-0.7c0-0.2,0-2.2,0-2.5c0-0.2-0.5-0.2-0.5,0c0,0.4,0,1-0.3,1.5c-0.9,1.4-2.6,2-3.8,0.3
		c-0.4-0.6-0.5-1.4-0.6-2c-0.1-0.8,0.5-1.9,0.6-2c1.5-2,3.6-0.5,3.8,0.3c0.1,0.5,0.2,1.2,0.2,1.6c0,0.2,0.5,0.2,0.5,0
		c0-0.2,0-3.3,0-3.5c0-0.2-0.4-0.3-0.4,0c0,0.5-0.3,0.5-0.7,0.4c-0.8-0.2-2.5-0.6-3.5,0c-0.9,0.5-2.2,1.7-2.2,3.2
		c0,2.5,1,2.7,2.1,3.4c1,0.6,2.4,0.2,3.7-0.2c0.5-0.1,0.6,0.2,0.8,0.5C52.1,40.8,52.5,40.5,52.2,40L52.2,40z M45.3,43.5
		c-0.9,1.3-1.3,3.4,0.2,4.6c0.7,0.6,1.3,1,2.7,0.8c0.3-0.6,0.4-0.8,0.9-1.4c-1,0.2-1.8,0-2.5-0.6c-1.5-1.2-1-3-0.6-3.7
		c0.8-1.2,1.9,0.5,2.2,0.7c0.3-0.3,0.7-0.8,1.2-1.1c-0.4-0.6-0.8-1.1-1.1-1.5C47.3,41.8,45.9,42.7,45.3,43.5L45.3,43.5z M45.9,55
		c-0.3,2.4,1.9,3.8,3,4.2c0.3-0.5,0.8-1.4,1.4-2.1c0.4-0.5,0-0.6-0.4-0.2c-0.5,0.5-2,0-2.4-0.7c0.7-0.5,2.6-2.1,3.4-2.8
		c-0.5-0.5-1.4-1.8-1.5-2.5C48.6,51.5,46.2,52.5,45.9,55L45.9,55z M48.2,52.4c0.2,0.5,0.9,1.6,1.2,1.8c-0.5,0.5-1.8,1.4-2.2,1.7
		C46.5,55,46.1,53.6,48.2,52.4L48.2,52.4z M53.1,51.5c-0.5,0.4-0.8,0.8-1.5,1.4c0.3,0.4,0.9,0.8,0.9,1.4c0,0.6,0,3.6,0.1,4.3
		c0.5,0,0.4,0.1,1.3,0c-0.1-0.5,0-4.3,0-4.8c0.3-0.3,0.4-0.4,0.7-0.6c0.3,0.2,0.9,0.4,0.9,0.8c0,0.4,0.1,2.2,0,2.9
		c-0.2,0.8-0.1,1.4,0.3,2.2c0.3-0.4,1.6-1.2,1.8-1.5c0.3-0.2,0.1-0.4-0.2-0.3c-0.4,0.1-0.4,0.2-0.4-0.1c0-0.4-0.2-2.4-0.2-3.7
		c0-1.3-0.7-1.6-1-1.8c-0.4,0.4-1.2,0.9-1.7,1.3C53.7,52.8,53.5,52.2,53.1,51.5L53.1,51.5z M58.2,48.5c0.4-0.3,0.7-0.9,0.9-1.1
		c0.3-0.3,0.1-0.5-0.2-0.3c-0.2,0.2-0.8-0.3-0.8-0.3c-0.2-0.2-0.5-3.1-0.3-3.2c0,0,1.8-0.2,2.1-0.2c0.2,0,0.2-0.6,0-0.6
		c-0.3,0-1.7,0.2-1.8,0.1c-0.1-0.3-0.3-1.3,0.2-2.2c0.2-0.4,0-0.8-0.2-0.4c-0.2,0.4-1.3,2.2-2.1,2.5c-0.6,0.3-0.5,0.4-0.1,0.5
		c0.3,0.1,0.6,0.4,0.6,0.4c-0.1,1.5-0.2,3.3,0.3,4.1C57,48.3,57.8,48.8,58.2,48.5L58.2,48.5z M64.5,49.1c-0.2,0.4-0.6,0.9-1.3,1.2
		c0.4,0.4,0.9,0.8,1.3,1c0.4-0.4,0.8-0.9,1.2-1.3C65.3,49.9,64.8,49.7,64.5,49.1L64.5,49.1z M61.6,47.5c0.6,0,1.5,0.3,2.6,0.2
		c1.2-0.1,2.2-2,1.7-3.5c-0.5-1.4-2.1-1.2-3.2-1.5c-1-0.3-1.4-0.9-0.3-1.6c1.3-0.8,2.8,0.5,3,0.8c0.2,0.4,0.4,0.4,0.4-0.1
		c0-1.2-0.1-0.5-0.2-1.6c0-0.4-0.3-0.4-0.4,0c0,0.4-0.5,0.3-0.9,0.3c-0.4,0-1.4-0.2-2.3,0.3c-0.6,0.3-1.9,1.4-1.2,2.6
		c0.4,0.7,3,1.3,3.6,1.7c0.6,0.4,0.8,1.5,0.2,2c-0.8,0.6-2.8,0.1-3.1-0.3c-0.4-0.5-0.6-0.8-0.7-1.4c-0.1-0.5-0.5-0.5-0.5,0
		c0,0.5,0.1,2.2,0.2,2.6c0.1,0.4,0.5,0.3,0.5,0C61.1,47.6,61.3,47.5,61.6,47.5L61.6,47.5z M58.9,52.8c-0.5,0.4,0.6,0.9,0.5,0.8
		c0,1.5-0.2,3,0.3,3.8c0.3,0.5,1.3,0.8,1.5,0.4c0.2-0.5,0.9-1.4,1.1-1.5c0.3-0.3,0-0.5-0.2-0.3c-0.5,0.6-0.9,0.3-1.3-0.1
		c-0.2-0.2-0.3-2.3-0.1-2.4c0,0,1-0.1,1.2-0.1c0.2,0,0.2-0.6,0-0.6c-0.3,0-1.2,0-1.3-0.1c-0.1-0.3,0.2-1.7,0.2-2.3
		c0-0.4-0.2-0.6-0.3-0.2C60.5,50.6,59.5,52.4,58.9,52.8L58.9,52.8z"/>
</g>
</svg>
